<svg xmlns="http://www.w3.org/2000/svg" xmlns:xlink="http://www.w3.org/1999/xlink" width="262" height="63.239"><defs><linearGradient id="a" x1="-228.585" y1="52.057" x2="-203.889" y2="76.754" gradientTransform="rotate(91 -62.238 185.825)" gradientUnits="userSpaceOnUse"><stop offset="0" stop-color="#01a48b"/><stop offset=".999" stop-color="#41bb2e"/></linearGradient><linearGradient id="b" x1="-228.569" y1="52.042" x2="-203.873" y2="76.738" gradientTransform="rotate(3 509.45 4731.677)" xlink:href="#a"/><linearGradient id="c" x1="-206.918" y1="30.391" x2="-182.222" y2="55.087" gradientTransform="rotate(3 509.45 4731.677)" xlink:href="#a"/><linearGradient id="d" x1="-211.698" y1="35.171" x2="-187.002" y2="59.867" gradientTransform="rotate(3 509.45 4731.677)" xlink:href="#a"/><linearGradient id="e" x1="-218.71" y1="42.182" x2="-194.014" y2="66.878" gradientTransform="rotate(3 509.45 4731.677)" xlink:href="#a"/><linearGradient id="f" x1="-227.715" y1="51.187" x2="-203.042" y2="75.86" gradientTransform="rotate(3 509.45 4731.677)" xlink:href="#a"/><linearGradient id="g" x1="-237.23" y1="60.702" x2="-212.534" y2="85.399" gradientTransform="rotate(3 509.45 4731.677)" xlink:href="#a"/></defs><g data-name="Layer 2"><g data-name="Layer 1"><ellipse cx="44.844" cy="50.392" rx="12.846" ry="12.397" transform="rotate(-88 44.844 50.392)" fill="url(#a)"/><path d="M19.46 16.678a4.9 4.9 0 01-4.037 5.551 4.725 4.725 0 01-5.188-3.418.233.233 0 00-.007-.025 21.562 21.562 0 01-.772-7.605c.006-.08.011-.161.02-.239a2.987 2.987 0 012.5-2.661 2.84 2.84 0 012.153.568l.011.008c.087.077.175.158.263.235v.006a20.483 20.483 0 014.524 5.909l.054.109a4.985 4.985 0 01.479 1.562z" fill="url(#b)"/><path d="M57 10.358a13.214 13.214 0 01-.383 5.393c-.028.1-.056.2-.088.3a4.7 4.7 0 01-9.189-.845 5.047 5.047 0 01.541-3.046c.046-.086.095-.174.146-.254a12.627 12.627 0 014.4-4.43c.094-.06.19-.114.286-.165l.021-.013a2.868 2.868 0 01.844-.26 2.918 2.918 0 013.2 2.11c0 .007.005.013.006.019.025.093.048.193.067.29.049.296.103.597.149.901z" fill="url(#c)"/><path d="M45.3 8.2a13.217 13.217 0 01-.533 5.881c-.021.076-.047.15-.075.224a4.7 4.7 0 01-9.09-.773.285.285 0 01-.006-.049 1.014 1.014 0 01-.017-.1l-.027-.2a1.014 1.014 0 01-.011-.105.205.205 0 01-.006-.046A13.133 13.133 0 0138.858 2.65c.034-.035.064-.069.1-.1a2.855 2.855 0 014.406.344.166.166 0 00.016.024c.044.067.089.136.13.207.017.024.029.049.042.07A13.086 13.086 0 0145.3 8.2z" fill="url(#d)"/><path d="M32.431 8.954a13.194 13.194 0 01-.412 5.487c-.028.1-.056.2-.091.3a4.8 4.8 0 01-3.832 3.3 4.658 4.658 0 01-4.569-2.083l-.085-.13a13.033 13.033 0 01-1.953-5.328 13.183 13.183 0 012.042-9.022.128.128 0 00.016-.026c.081-.118.161-.236.245-.352A2.9 2.9 0 0125.633.03a2.842 2.842 0 011.933.414l.018.014c.165.126.327.255.486.391a12.909 12.909 0 014.361 8.105z" fill="url(#e)"/><path d="M60.015 30.843a5.627 5.627 0 01-.463 2.9 4.87 4.87 0 01-4.686 2.873 7.333 7.333 0 01-2.672-.985 14.706 14.706 0 00-2.635-1.119 20.189 20.189 0 00-5.723-.972 14.151 14.151 0 00-6.1 1.255 13.4 13.4 0 00-4.772 3.97 19.649 19.649 0 00-3.826 8.915c-.187 1.071-.188 2.159-.388 3.229a6.53 6.53 0 01-.558 1.721c-1.658 3.283-5.406 2.936-8.309 2.019A12.628 12.628 0 0112.3 48.13q-.273-.564-.493-1.162a21.105 21.105 0 01-1.281-4.946c-.549-4.079-.093-8.522 2.214-11.993 2.424-3.652 6.612-5.6 10.546-6.943a42.469 42.469 0 0114.52-1.966 56.265 56.265 0 0113.979 2.256 21.21 21.21 0 013.052 1.045c2.506 1.112 4.879 3.6 5.178 6.422z" fill="url(#f)"/><path d="M10.525 24.624a4.9 4.9 0 01-4.037 5.551 4.6 4.6 0 01-3.327-.8c-.039-.031-.081-.058-.121-.089-.1-.075-.19-.151-.285-.234l-.131-.117a7.953 7.953 0 01-2.55-4.876 7.105 7.105 0 01-.062-.722c0-.056-.008-.109-.009-.162a1.357 1.357 0 010-.156 3.015 3.015 0 012.032-2.839c.077-.025.154-.046.232-.067.04-.013.084-.019.128-.029a6.446 6.446 0 01.709-.144 7.388 7.388 0 015.212 1.183c.063.041.13.084.19.128l.189.139a4.929 4.929 0 011.83 3.234z" fill="url(#g)"/><path d="M108.287 27.357c0 12.241-5.47 17.3-18.6 17.3h-6.704v16.536H69.565V10.052h20.126c13.126 0 18.596 5.063 18.596 17.305zm-13.345 0c0-4.61-1.823-6.423-6.49-6.423h-5.469V33.78h5.469c4.667 0 6.49-1.814 6.49-6.423zm31.704 34.694c-10.483 0-18.091-8.114-18.091-19.292 0-11.317 7.682-19.531 18.266-19.531a13.968 13.968 0 018.705 2.589v-1.8h10.784v37.249h-10.784v-1.935a14.223 14.223 0 01-8.88 2.72zm.99-27.649c-4.474 0-7.6 3.512-7.6 8.54 0 4.819 3.029 7.935 7.715 7.935 4.581 0 7.541-3.138 7.541-8 .001-4.989-3.147-8.477-7.656-8.477zm42.342 26.864V43c0-8.6-2.107-8.6-4.336-8.6a4.612 4.612 0 00-4.158 2.2c-.658 1.082-.994 2.466-.994 7.007v17.66h-11.425V24.013h10.842V25.2a12.892 12.892 0 017.25-1.975c5.112 0 9.118 1.953 11.588 5.649 1.985 2.949 2.657 6.118 2.657 12.554v19.838zm31.84.785c-10.111 0-18.033-8.553-18.033-19.472 0-11.088 7.9-19.773 17.974-19.773A16.348 16.348 0 01210 24.977V12.845h11.424v48.421h-10.786v-1.95a14.278 14.278 0 01-8.82 2.735zm1.048-28.071c-4.261 0-7.6 3.617-7.6 8.236 0 4.857 3.414 8.661 7.774 8.661 4.229 0 7.541-3.7 7.541-8.419 0-4.833-3.317-8.478-7.715-8.478zm39.47 28.071c-10.483 0-18.09-8.114-18.09-19.292 0-11.317 7.681-19.531 18.264-19.531a13.981 13.981 0 018.706 2.587v-1.8H262v37.251h-10.784v-1.935a14.221 14.221 0 01-8.88 2.72zm.991-27.649c-4.475 0-7.6 3.512-7.6 8.54 0 4.819 3.028 7.935 7.716 7.935 4.581 0 7.541-3.138 7.541-8 0-4.989-3.148-8.477-7.657-8.477z" fill="#050505"/></g></g></svg>